<svg width="115" height="32" viewBox="0 0 115 32" fill="none" xmlns="http://www.w3.org/2000/svg">
<path d="M18.36 31.828C17.3627 31.828 16.4533 31.476 15.632 30.772C14.84 30.0973 14.1507 29.2027 13.564 28.088C12.9773 27.0027 12.4787 25.8587 12.068 24.656C11.6573 23.424 11.3347 22.28 11.1 21.224C10.8653 20.168 10.704 19.3613 10.616 18.804C10.3813 18.6573 10.2053 18.5107 10.088 18.364C9.296 20.2707 8.636 22.06 8.108 23.732C7.58 25.404 7.316 26.6947 7.316 27.604C7.316 28.0733 7.404 28.4253 7.58 28.66C7.63867 28.7187 7.668 28.8067 7.668 28.924C7.668 29.1293 7.50667 29.1733 7.184 29.056C6.94933 28.9387 6.612 28.8507 6.172 28.792C5.76133 28.7333 5.40933 28.6453 5.116 28.528C4.55867 28.2347 4.148 27.78 3.884 27.164C3.62 26.5187 3.488 25.7707 3.488 24.92C3.488 23.7467 3.67867 22.412 4.06 20.916C4.44133 19.42 4.91067 17.9093 5.468 16.384C6.05467 14.8293 6.656 13.3773 7.272 12.028C7.888 10.6787 8.43067 9.53467 8.9 8.596C9.39867 7.628 9.736 6.99733 9.912 6.704C10.4693 5.85333 11.144 5.252 11.936 4.9C12.728 4.51866 13.5787 4.328 14.488 4.328C16.4533 4.328 17.2893 4.504 16.996 4.856C15.7347 6.46933 14.5467 8.39067 13.432 10.62C12.3173 12.82 11.3787 14.9907 10.616 17.132C10.792 17.308 11.1147 17.396 11.584 17.396C12.2587 17.396 13.0067 17.0293 13.828 16.296C14.6787 15.5627 15.4707 14.624 16.204 13.48C16.9667 12.3067 17.5827 11.0747 18.052 9.784C18.5507 8.49333 18.8 7.29067 18.8 6.176C18.8 5.06133 18.492 4.152 17.876 3.448C17.26 2.71467 16.2187 2.348 14.752 2.348C13.784 2.348 12.6693 2.50933 11.408 2.832C10.176 3.15466 8.95867 3.63866 7.756 4.284C6.55333 4.92933 5.512 5.75067 4.632 6.748C3.752 7.716 3.18 8.87467 2.916 10.224C2.79867 10.1947 2.50533 10.1213 2.036 10.004C1.56667 9.85733 1.112 9.63733 0.672 9.344C0.261333 9.02133 0.056 8.61067 0.056 8.112C0.056 6.616 0.716 5.34 2.036 4.284C3.356 3.228 5.16 2.42133 7.448 1.864C9.736 1.27733 12.3173 0.983999 15.192 0.983999C18.1547 0.983999 20.34 1.556 21.748 2.7C23.156 3.81467 23.86 5.23733 23.86 6.968C23.86 8.376 23.4347 9.84267 22.584 11.368C21.7627 12.8933 20.6333 14.272 19.196 15.504C17.788 16.736 16.1893 17.6307 14.4 18.188C14.6053 18.628 14.9427 19.2733 15.412 20.124C15.9107 20.9747 16.468 21.9133 17.084 22.94C17.7293 23.9373 18.3893 24.8907 19.064 25.8C19.7387 26.68 20.384 27.3987 21 27.956C21.616 28.484 22.144 28.6893 22.584 28.572C22.7307 28.5427 22.7307 28.6893 22.584 29.012C22.4667 29.3347 22.2173 29.7013 21.836 30.112C21.484 30.552 21.0147 30.948 20.428 31.3C19.8413 31.652 19.152 31.828 18.36 31.828ZM28.7041 28.66C26.5628 28.66 25.0081 28.176 24.0401 27.208C23.1015 26.24 22.6321 24.964 22.6321 23.38C22.6321 22.1773 22.8815 20.8573 23.3801 19.42C23.7615 18.2467 24.2748 17.0587 24.9201 15.856C25.5655 14.624 26.3135 13.4947 27.1641 12.468C28.0148 11.412 28.9535 10.576 29.9801 9.96C31.0068 9.31467 32.0921 8.992 33.2361 8.992C34.7028 8.992 35.8908 9.22667 36.8001 9.696C37.7388 10.136 38.2081 10.8693 38.2081 11.896C38.2081 12.6587 37.9001 13.612 37.2841 14.756C36.4628 16.34 35.2601 17.6453 33.6761 18.672C32.0921 19.6987 30.3175 20.2853 28.3521 20.432C27.9121 21.6347 27.6481 22.6173 27.5601 23.38C27.5308 23.5267 27.5161 23.6733 27.5161 23.82C27.5161 23.9373 27.5161 24.0693 27.5161 24.216C27.5161 25.184 27.7361 25.888 28.1761 26.328C28.6161 26.7387 29.1588 26.944 29.8041 26.944C31.0068 26.944 32.0628 26.636 32.9721 26.02C33.8815 25.404 34.6735 24.6267 35.3481 23.688C36.0521 22.7493 36.6535 21.8107 37.1521 20.872C37.4455 20.344 37.6948 19.86 37.9001 19.42C38.1055 18.9507 38.2668 18.6133 38.3841 18.408C38.5308 18.1733 38.6921 18.056 38.8681 18.056C39.0441 18.056 39.2055 18.1587 39.3521 18.364C39.4988 18.54 39.5135 18.7453 39.3961 18.98C39.0148 19.7427 38.4868 20.7547 37.8121 22.016C37.1375 23.2773 36.3748 24.392 35.5241 25.36C34.5855 26.4747 33.5735 27.3107 32.4881 27.868C31.4321 28.396 30.1708 28.66 28.7041 28.66ZM28.9241 19.156C30.2441 18.6573 31.4028 17.7627 32.4001 16.472C33.4268 15.1813 34.1161 13.7587 34.4681 12.204C34.4975 12.0573 34.5121 11.9253 34.5121 11.808C34.5415 11.6907 34.5561 11.5733 34.5561 11.456C34.5561 10.8693 34.3801 10.576 34.0281 10.576C33.7348 10.576 33.4268 10.7813 33.1041 11.192C32.6348 11.7493 32.1361 12.512 31.6081 13.48C31.0801 14.4187 30.6108 15.3427 30.2001 16.252C29.7895 17.1613 29.4815 17.8507 29.2761 18.32L28.9241 19.156ZM56.2914 28.352C54.8248 28.352 53.8274 27.956 53.2994 27.164C52.7714 26.372 52.5074 25.448 52.5074 24.392C52.5074 23.6 52.5954 22.8227 52.7714 22.06C52.9474 21.268 53.1381 20.5787 53.3434 19.992C53.5488 19.376 53.6808 18.9507 53.7394 18.716C54.0621 17.748 54.4434 16.78 54.8834 15.812C55.3528 14.844 55.6608 14.0373 55.8074 13.392C55.4554 13.6853 54.9861 14.2427 54.3994 15.064C53.8128 15.856 53.1674 16.78 52.4634 17.836C51.7888 18.892 51.1434 19.992 50.5274 21.136C49.9408 22.2507 49.4421 23.3067 49.0314 24.304C48.6501 25.3013 48.4594 26.1227 48.4594 26.768C48.4594 27.1787 48.5474 27.5013 48.7234 27.736C48.4594 27.824 48.1954 27.912 47.9314 28C47.6674 28.0587 47.4034 28.088 47.1394 28.088C46.1128 28.088 45.3941 27.8093 44.9834 27.252C44.6021 26.6947 44.4114 26.02 44.4114 25.228C44.4114 24.26 44.5874 23.2333 44.9394 22.148C45.3208 21.0627 45.6581 20.1827 45.9514 19.508C46.1861 18.98 46.4794 18.276 46.8314 17.396C47.2128 16.516 47.5941 15.6507 47.9754 14.8C48.3861 13.92 48.7381 13.2453 49.0314 12.776C48.7088 13.0693 48.2101 13.6267 47.5354 14.448C46.8901 15.2693 46.1714 16.2373 45.3794 17.352C44.5874 18.4667 43.8248 19.6253 43.0914 20.828C42.3581 22.0013 41.7568 23.116 41.2874 24.172C40.8181 25.228 40.5834 26.108 40.5834 26.812C40.5834 27.2813 40.6861 27.6187 40.8914 27.824C40.9794 27.912 41.0234 27.9853 41.0234 28.044C41.0234 28.1907 40.8621 28.2347 40.5394 28.176C39.8648 28.0587 39.2048 27.9413 38.5594 27.824C37.9141 27.6773 37.3714 27.3987 36.9314 26.988C36.5208 26.548 36.3154 25.8293 36.3154 24.832C36.3154 24.04 36.5208 23.0867 36.9314 21.972C37.3421 20.828 37.8261 19.6547 38.3834 18.452C38.9408 17.2493 39.4248 16.1347 39.8354 15.108C39.9234 14.8733 40.0701 14.5213 40.2754 14.052C40.4808 13.5533 40.6861 13.04 40.8914 12.512C41.1261 11.9547 41.3021 11.4707 41.4194 11.06C41.5368 10.62 41.5661 10.3267 41.5074 10.18C41.4488 10.0627 41.4194 9.97467 41.4194 9.916C41.4194 9.564 41.6541 9.388 42.1234 9.388C42.5928 9.388 43.0621 9.46133 43.5314 9.608C44.0301 9.72533 44.4701 9.93067 44.8514 10.224C45.2621 10.5173 45.5848 10.8693 45.8194 11.28C46.0541 11.6907 46.1714 12.1453 46.1714 12.644C46.1714 12.9667 46.0981 13.348 45.9514 13.788C45.8634 14.052 45.6874 14.4187 45.4234 14.888C45.1888 15.328 44.9541 15.768 44.7194 16.208C44.5141 16.6187 44.3968 16.912 44.3674 17.088C44.8368 16.4133 45.3501 15.6653 45.9074 14.844C46.4941 14.0227 47.0514 13.2453 47.5794 12.512C48.1368 11.7493 48.6208 11.104 49.0314 10.576C49.4714 10.0187 49.7941 9.66667 49.9994 9.52C50.3221 9.28533 50.7034 9.168 51.1434 9.168C51.7594 9.168 52.4341 9.344 53.1674 9.696C53.6661 9.90133 54.0034 10.18 54.1794 10.532C54.3848 10.8547 54.4874 11.2213 54.4874 11.632C54.4874 12.2187 54.3261 12.8347 54.0034 13.48C53.7101 14.096 53.4314 14.6533 53.1674 15.152C53.7541 14.3307 54.3408 13.5093 54.9274 12.688C55.5434 11.8667 56.1008 11.1333 56.5994 10.488C57.1274 9.84267 57.5528 9.40267 57.8754 9.168C58.1101 8.992 58.4914 8.904 59.0194 8.904C59.6354 8.904 60.2661 9.09467 60.9114 9.476C61.5568 9.85733 61.8794 10.5467 61.8794 11.544C61.8794 11.9253 61.8061 12.3653 61.6594 12.864C61.5128 13.3627 61.2781 13.92 60.9554 14.536C59.6941 16.9413 58.7261 19.112 58.0514 21.048C57.3768 22.9547 57.0394 24.3627 57.0394 25.272C57.0394 25.9173 57.2154 26.24 57.5674 26.24C57.9781 26.24 58.4328 25.976 58.9314 25.448C59.4594 24.92 59.9728 24.2893 60.4714 23.556C61.1168 22.6173 61.7034 21.62 62.2314 20.564C62.7888 19.508 63.1701 18.7747 63.3754 18.364C63.4634 18.188 63.5954 18.1 63.7714 18.1C63.9474 18.1 64.1088 18.2027 64.2554 18.408C64.4314 18.584 64.4608 18.7893 64.3434 19.024C64.1381 19.4347 63.8301 20.0067 63.4194 20.74C63.0381 21.444 62.5981 22.2213 62.0994 23.072C61.6008 23.8933 61.0581 24.6853 60.4714 25.448C59.8261 26.2693 59.1514 26.9587 58.4474 27.516C57.7434 28.0733 57.0248 28.352 56.2914 28.352ZM66.1203 28.352C65.0643 28.352 64.1109 28.0587 63.2603 27.472C62.4096 26.856 61.9843 25.8587 61.9843 24.48C61.9843 23.5707 62.1309 22.5147 62.4243 21.312C62.7469 20.1093 63.1429 18.8773 63.6123 17.616C64.0816 16.3253 64.5656 15.1373 65.0643 14.052C65.5923 12.9373 66.0616 12.028 66.4723 11.324C67.1176 10.2973 67.8363 9.66667 68.6283 9.432C69.4496 9.19733 70.4469 9.08 71.6203 9.08C72.4709 9.08 73.1749 9.18267 73.7323 9.388C74.2896 9.564 74.3776 9.76933 73.9963 10.004C73.4389 10.3853 72.7203 11.236 71.8403 12.556C70.9603 13.876 70.1096 15.3573 69.2883 17C69.0536 17.4693 68.7603 18.1 68.4083 18.892C68.0563 19.6547 67.7043 20.476 67.3523 21.356C67.0296 22.2067 66.7509 23.028 66.5163 23.82C66.2816 24.5827 66.1643 25.2133 66.1643 25.712C66.1643 26.4453 66.5016 26.812 67.1763 26.812C67.8803 26.812 68.6723 26.4747 69.5523 25.8C69.9629 25.4773 70.3443 25.1107 70.6963 24.7C71.0483 24.2893 71.3709 23.8787 71.6643 23.468C72.2509 22.676 72.7789 21.8253 73.2483 20.916C73.7469 19.9773 74.2016 19.0973 74.6123 18.276C74.7003 18.1 74.8176 18.012 74.9643 18.012C75.1696 18.012 75.3456 18.1147 75.4923 18.32C75.6389 18.5253 75.6536 18.7453 75.5363 18.98C75.0963 19.86 74.5536 20.9013 73.9083 22.104C73.2629 23.2773 72.5149 24.3627 71.6643 25.36C70.9309 26.2107 70.0949 26.9293 69.1563 27.516C68.2469 28.0733 67.2349 28.352 66.1203 28.352ZM72.4123 6.88C71.9136 6.88 71.5176 6.71867 71.2243 6.396C70.9309 6.044 70.7843 5.58933 70.7843 5.032C70.7843 4.35733 70.9603 3.74133 71.3123 3.184C71.6643 2.62667 72.1043 2.172 72.6323 1.82C73.1603 1.468 73.7029 1.292 74.2603 1.292C74.7589 1.292 75.1549 1.468 75.4483 1.82C75.7416 2.14266 75.8883 2.55333 75.8883 3.052C75.8883 3.69733 75.7123 4.31333 75.3603 4.9C75.0083 5.48667 74.5683 5.97067 74.0403 6.352C73.5123 6.704 72.9696 6.88 72.4123 6.88ZM84.8162 28.352C83.3202 28.352 82.3082 27.9413 81.7802 27.12C81.2522 26.2987 80.9882 25.3453 80.9882 24.26C80.9882 23.468 81.0762 22.676 81.2522 21.884C81.4282 21.092 81.6188 20.388 81.8242 19.772C82.0295 19.156 82.1762 18.7307 82.2642 18.496C82.6162 17.44 82.9828 16.428 83.3642 15.46C83.7748 14.4627 84.0828 13.7733 84.2882 13.392C84.2002 13.5387 83.8775 13.964 83.3202 14.668C82.7628 15.372 82.1028 16.252 81.3402 17.308C80.6068 18.3347 79.8735 19.4347 79.1402 20.608C78.4068 21.752 77.7908 22.8667 77.2922 23.952C76.8228 25.008 76.5882 25.9173 76.5882 26.68C76.5882 27.208 76.7055 27.5893 76.9402 27.824C77.0282 27.912 77.0722 27.9853 77.0722 28.044C77.0722 28.1907 76.9108 28.2347 76.5882 28.176C75.9135 28.0587 75.2535 27.9413 74.6082 27.824C73.9628 27.6773 73.4202 27.3987 72.9802 26.988C72.5695 26.548 72.3642 25.8293 72.3642 24.832C72.3642 24.04 72.5695 23.0867 72.9802 21.972C73.3908 20.828 73.8748 19.6547 74.4322 18.452C74.9895 17.2493 75.4735 16.1347 75.8842 15.108C75.9722 14.8733 76.1188 14.5213 76.3242 14.052C76.5295 13.5533 76.7348 13.04 76.9402 12.512C77.1748 11.9547 77.3508 11.4707 77.4682 11.06C77.5855 10.62 77.6148 10.3267 77.5562 10.18C77.4975 10.0627 77.4682 9.97467 77.4682 9.916C77.4682 9.564 77.7028 9.388 78.1722 9.388C78.6415 9.388 79.1108 9.46133 79.5802 9.608C80.0788 9.72533 80.5188 9.93067 80.9002 10.224C81.3108 10.5173 81.6335 10.8693 81.8682 11.28C82.1028 11.6907 82.2202 12.1453 82.2202 12.644C82.2202 12.9667 82.1468 13.348 82.0002 13.788C81.9415 13.9933 81.8095 14.272 81.6042 14.624C81.4282 14.9467 81.2375 15.2987 81.0322 15.68C80.8268 16.0613 80.6068 16.4573 80.3722 16.868C80.1668 17.2787 80.0935 17.4987 80.1522 17.528C80.8855 16.2373 81.6775 15.0347 82.5282 13.92C83.4082 12.776 84.2002 11.7933 84.9042 10.972C85.6375 10.1507 86.1215 9.54933 86.3562 9.168C86.5908 8.992 86.9722 8.904 87.5002 8.904C88.1162 8.904 88.7468 9.09467 89.3922 9.476C90.0375 9.85733 90.3602 10.5467 90.3602 11.544C90.3602 12.3653 90.0668 13.3627 89.4802 14.536C88.2188 16.9413 87.2508 19.112 86.5762 21.048C85.9015 22.9547 85.5642 24.3627 85.5642 25.272C85.5642 25.9173 85.7402 26.24 86.0922 26.24C86.5028 26.24 86.9722 25.976 87.5002 25.448C88.0282 24.92 88.5268 24.2893 88.9962 23.556C89.6415 22.6173 90.2282 21.62 90.7562 20.564C91.3135 19.508 91.6948 18.7747 91.9002 18.364C91.9882 18.188 92.1202 18.1 92.2962 18.1C92.4722 18.1 92.6335 18.2027 92.7802 18.408C92.9562 18.584 92.9855 18.7893 92.8682 19.024C92.6628 19.4347 92.3548 20.0067 91.9442 20.74C91.5628 21.4733 91.1228 22.2653 90.6242 23.116C90.1255 23.9373 89.5828 24.7293 88.9962 25.492C88.3508 26.372 87.7055 27.076 87.0602 27.604C86.4148 28.1027 85.6668 28.352 84.8162 28.352ZM102.573 28.308C101.957 28.308 101.414 28.1907 100.945 27.956C100.211 27.604 99.6539 26.988 99.2726 26.108C98.9206 25.228 98.7886 24.2747 98.8766 23.248L98.4366 24.084C97.9966 24.9347 97.3806 25.8 96.5886 26.68C95.8552 27.5013 95.1952 27.9707 94.6086 28.088C94.0219 28.2053 93.4939 28.2493 93.0246 28.22C91.9979 28.132 91.2499 27.648 90.7806 26.768C90.3112 25.8587 90.0766 24.8173 90.0766 23.644C90.0766 22.324 90.2966 21.0333 90.7366 19.772C91.2059 18.4813 91.7926 17.1467 92.4966 15.768C93.9339 13.0693 95.4006 11.2507 96.8966 10.312C98.3926 9.344 99.9326 8.904 101.517 8.992C101.839 9.02133 102.265 9.09467 102.793 9.212C103.321 9.3 103.79 9.40267 104.201 9.52C104.729 8.66933 105.315 7.83333 105.961 7.012C106.606 6.19067 107.281 5.48667 107.985 4.9C108.718 4.31333 109.451 3.96133 110.185 3.844C110.683 3.756 111.167 3.712 111.637 3.712C112.399 3.712 112.971 3.78533 113.353 3.932C114.027 4.196 114.365 4.46 114.365 4.724C114.365 4.9 114.218 4.988 113.925 4.988C113.807 4.988 113.646 5.06133 113.441 5.208C113.235 5.32533 113.045 5.472 112.869 5.648C112.077 6.44 111.182 7.55467 110.185 8.992C109.187 10.4293 108.219 12.028 107.281 13.788C106.342 15.548 105.521 17.3227 104.817 19.112C104.523 19.8747 104.245 20.7987 103.981 21.884C103.717 22.9693 103.585 23.908 103.585 24.7C103.585 25.1693 103.643 25.5507 103.761 25.844C103.878 26.108 104.069 26.24 104.333 26.24C104.743 26.24 105.198 25.976 105.697 25.448C106.195 24.8907 106.694 24.2453 107.193 23.512C107.867 22.5733 108.439 21.62 108.909 20.652C109.407 19.684 109.789 18.9507 110.053 18.452C110.111 18.276 110.258 18.188 110.493 18.188C110.698 18.188 110.874 18.276 111.021 18.452C111.167 18.628 111.167 18.8333 111.021 19.068C110.463 20.1533 109.877 21.2827 109.261 22.456C108.645 23.6 107.955 24.6707 107.193 25.668C106.665 26.372 105.99 26.988 105.169 27.516C104.347 28.044 103.482 28.308 102.573 28.308ZM95.2686 26.108C95.5912 26.108 96.0312 25.7413 96.5886 25.008C97.1752 24.2453 97.6886 23.4093 98.1286 22.5C98.2166 22.324 98.3926 21.928 98.6566 21.312C98.9499 20.6667 99.2872 19.8893 99.6686 18.98C100.079 18.0707 100.49 17.1173 100.901 16.12C101.341 15.1227 101.751 14.1693 102.133 13.26C102.514 12.3507 102.822 11.588 103.057 10.972C103.086 10.9133 103.101 10.8253 103.101 10.708C103.101 10.444 102.91 10.312 102.529 10.312C102.323 10.312 102.089 10.356 101.825 10.444C101.59 10.532 101.385 10.6493 101.209 10.796C100.739 11.1773 100.153 11.896 99.4486 12.952C98.7446 14.008 98.0406 15.2547 97.3366 16.692C96.6326 18.1 96.0459 19.552 95.5766 21.048C95.1072 22.5147 94.8726 23.864 94.8726 25.096C94.8726 25.7707 95.0046 26.108 95.2686 26.108Z" fill="white"/>
</svg>
